<?xml version="1.0" encoding="utf-8"?>
<!-- Generator: Adobe Illustrator 21.0.0, SVG Export Plug-In . SVG Version: 6.00 Build 0)  -->
<svg version="1.1" id="Layer_1" xmlns="http://www.w3.org/2000/svg" xmlns:xlink="http://www.w3.org/1999/xlink" x="0px" y="0px"
	 viewBox="0 0 6981 4518.5" style="enable-background:new 0 0 6981 4518.5;" xml:space="preserve">
<g>
	<g>
		<path d="M416,1034.4V404.1h134.2v630.3H416z"/>
		<path d="M722.2,1034.4V404.1H1017c137,0,211.7,92.6,211.7,203.2c0,109.6-75.6,202.2-211.7,202.2H856.4v224.9H722.2z M1091.7,607.2
			c0-52.9-40.6-85.1-93.6-85.1H856.4v169.2h141.8C1051,691.4,1091.7,659.2,1091.7,607.2z"/>
		<path d="M1360,1034.4V404.1h446v118.1h-311.9v132.3h305.2v118.1h-305.2v261.8L1360,1034.4L1360,1034.4z"/>
		<path d="M1903.4,945.6l73.7-104.9c44.4,46.3,113.4,86,200.3,86c74.7,0,109.6-33.1,109.6-69.9c0-109.6-362.9-33.1-362.9-270.3
			c0-104.9,90.7-191.8,239.1-191.8c100.2,0,183.3,30.2,245.7,87.9l-74.7,100.2c-51-47.3-119.1-69-183.3-69
			c-56.7,0-88.8,24.6-88.8,62.4c0,99.2,361.9,32.1,361.9,267.4c0,115.3-83.2,202.2-252.3,202.2
			C2049.9,1045.7,1963,1005.1,1903.4,945.6z"/>
		<path d="M2826.7,945.6l47.3-60.5c40.6,47.2,108.7,90.7,197.5,90.7c112.5,0,148.4-60.5,148.4-109.6c0-162.5-373.3-71.8-373.3-296.7
			c0-104,92.6-175.8,217.4-175.8c95.4,0,170.1,33.1,223,88.8l-47.3,57.6c-47.3-52.9-113.4-75.6-182.4-75.6
			c-74.7,0-129.5,40.6-129.5,100.2c0,141.8,373.3,60.5,373.3,295.8c0,90.7-62.4,185.2-232.5,185.2
			C2959.9,1045.7,2878.6,1004.1,2826.7,945.6z"/>
		<path d="M3465.5,1034.4V404.1h413V474H3544v203.2h327.9v69.9H3544v217.4h334.5v69.9H3465.5z"/>
		<path d="M4500.2,1034.4l-55.8-140.8h-313.7l-55.8,140.8h-89.8l254.2-630.3h97.3l253.3,630.3H4500.2z M4287.6,484.4l-133.2,340.2
			h267.4L4287.6,484.4z"/>
		<path d="M5084.2,1034.4L4924.5,784h-126.6v250.4h-78.4V404.1h253.3c115.3,0,198.5,73.7,198.5,189.9
			c0,113.4-78.4,175.8-164.4,183.3l170.1,257L5084.2,1034.4L5084.2,1034.4z M5089.9,594c0-71.8-52-120-126.6-120h-165.4v241h165.4
			C5037.9,715,5089.9,664.9,5089.9,594z"/>
		<path d="M5316.7,719.7c0-193.7,142.7-326,324.1-326c111.5,0,189,52.9,239.1,124.7l-65.2,36.9c-35.9-53.9-102.1-91.7-173.9-91.7
			c-138,0-242.9,104.9-242.9,256.1c0,149.3,104.9,256.1,242.9,256.1c71.8,0,138-38.7,173.9-91.7l66.2,35.9
			c-52.9,72.8-128.5,125.7-240,125.7C5459.4,1045.7,5316.7,913.4,5316.7,719.7z"/>
		<path d="M6475.3,1034.4V745.2h-368.6v289.2h-78.4V404.1h78.4v271.2h368.6V404.1h78.4v630.3H6475.3z"/>
		<path d="M382.9,1490.1l20.6-26.4c17.7,20.6,47.4,39.6,86.1,39.6c49,0,64.7-26.4,64.7-47.8c0-70.9-162.7-31.3-162.7-129.4
			c0-45.3,40.4-76.6,94.8-76.6c41.6,0,74.2,14.4,97.2,38.7l-20.6,25.1c-20.6-23.1-49.4-33-79.5-33c-32.5,0-56.4,17.7-56.4,43.7
			c0,61.8,162.7,26.4,162.7,129c0,39.6-27.2,80.8-101.4,80.8C441,1533.7,405.5,1515.6,382.9,1490.1z"/>
		<path d="M628,1429.1c0-57.7,41.2-104.2,98.1-104.2c60.2,0,95.6,47,95.6,106.7v7.8H661c2.5,37.5,28.4,68.8,71.3,68.8
			c23.1,0,45.7-9.1,61.8-25.5l14.8,20.2c-20.2,19.8-47,30.9-79.1,30.9C670.5,1533.7,628,1491.3,628,1429.1z M725.7,1350.4
			c-42.4,0-63.4,35.8-65.1,65.9h130.6C790.8,1387.1,771,1350.4,725.7,1350.4z"/>
		<path d="M995.9,1528.8v-22.7c-16.1,18.1-39.1,27.6-65.9,27.6c-33.4,0-69.2-22.7-69.2-65.9c0-44.9,35.4-65.5,69.2-65.5
			c27.2,0,49.9,8.7,65.9,26.8v-35.8c0-26.4-21.4-41.6-50.3-41.6c-23.9,0-43.3,8.2-61,27.6l-14.4-21.4c21.4-22.2,47-33,79.5-33
			c42.4,0,77,19,77,67.2v136.8L995.9,1528.8L995.9,1528.8z M995.9,1486.8v-37.9c-11.9-16.1-33-24.3-54.4-24.3
			c-29.3,0-49.4,18.1-49.4,43.3c0,25.5,20.2,43.7,49.4,43.7C963,1511.5,984,1503.2,995.9,1486.8z"/>
		<path d="M1089,1528.8v-199h30.9v31.7c16.1-20.6,39.1-36.3,66.3-36.3v31.7c-3.7-0.4-7.4-0.8-11.9-0.8c-19.4,0-45.3,15.7-54.4,31.7
			v140.9H1089V1528.8z"/>
		<path d="M1213.5,1429.1c0-58.9,40-104.2,99.3-104.2c36.3,0,57.7,14.8,72.9,34.6l-20.6,18.5c-13.2-18.1-30.1-25.5-50.7-25.5
			c-42,0-68.8,32.5-68.8,76.6s26.8,77,68.8,77c20.6,0,37.5-8.2,50.7-26l20.6,19c-15.2,19.8-36.7,34.6-72.9,34.6
			C1253.4,1533.7,1213.5,1488,1213.5,1429.1z"/>
		<path d="M1564.1,1528.8v-131c0-35.4-17.7-45.3-44.9-45.3c-23.9,0-47,14.8-58.5,30.9v145.4h-30.9V1254h30.9v104.6
			c13.6-16.9,40.8-33.8,70.9-33.8c41.6,0,63.4,20.2,63.4,63.4v140.5h-30.9V1528.8z"/>
		<path d="M1651.4,1280.8c0-11.5,9.5-21,21-21s20.6,9.5,20.6,21s-9.1,20.6-20.6,20.6S1651.4,1292.3,1651.4,1280.8z M1656.8,1528.8
			v-199h30.9v199H1656.8z"/>
		<path d="M1884.2,1528.8v-130.2c0-35.4-18.1-46.1-44.9-46.1c-24.3,0-47,14.8-58.9,30.9v145.4h-30.9v-199h30.9v28.8
			c14-16.9,41.2-33.8,71.3-33.8c41.2,0,63,21,63,64.3v139.7L1884.2,1528.8L1884.2,1528.8z"/>
		<path d="M1976.5,1579.5l15.7-22.2c16.5,19.4,36.3,26.8,64.7,26.8c33,0,64.3-16.1,64.3-58.1v-30.1c-14.8,20.2-39.1,35.4-67.2,35.4
			c-51.9,0-88.6-38.7-88.6-103c0-63.9,36.3-103.4,88.6-103.4c26.8,0,51.1,13.2,67.2,35v-30.1h30.9v196.1c0,63-46.6,83.6-95.2,83.6
			C2023.4,1609.5,2000.4,1603,1976.5,1579.5z M2121.1,1471.5v-87.3c-11.1-16.9-35-31.7-59.3-31.7c-40.4,0-64.3,31.7-64.3,75.8
			c0,43.7,23.9,75.4,64.3,75.4C2086.1,1503.7,2110,1488.8,2121.1,1471.5z"/>
		<path d="M2326.7,1487.2V1357h-33v-27.2h33v-54.4h31.3v54.4h40.4v27.2H2358v123.6c0,14.8,6.6,25.5,19.8,25.5c9.1,0,16.9-4.1,21-8.7
			l9.1,23.5c-7.8,7.4-19,12.8-36.7,12.8C2341.5,1533.7,2326.7,1516.8,2326.7,1487.2z"/>
		<path d="M2576.3,1528.8v-131c0-35.4-17.7-45.3-44.9-45.3c-23.9,0-47,14.8-58.5,30.9v145.4H2442V1254h30.9v104.6
			c13.6-16.9,40.8-33.8,70.9-33.8c41.6,0,63.4,20.2,63.4,63.4v140.5h-30.9V1528.8z"/>
		<path d="M2657.5,1429.1c0-57.7,41.2-104.2,98.1-104.2c60.2,0,95.6,47,95.6,106.7v7.8h-160.7c2.5,37.5,28.4,68.8,71.3,68.8
			c23.1,0,45.7-9.1,61.8-25.5l14.8,20.2c-20.2,19.8-47,30.9-79.1,30.9C2699.9,1533.7,2657.5,1491.3,2657.5,1429.1z M2755.1,1350.4
			c-42.4,0-63.4,35.8-65.1,65.9h130.6C2820.2,1387.1,2800.4,1350.4,2755.1,1350.4z"/>
		<path d="M3008.9,1422.1V1254h34.6v167.3c0,50.3,26.8,82,77.5,82s77.9-31.7,77.9-82V1254h34.6v167.7c0,68.4-37.9,112.1-112.5,112.1
			C3046.8,1533.7,3008.9,1489.6,3008.9,1422.1z"/>
		<path d="M3431.2,1528.8v-130.2c0-35.4-18.1-46.1-44.9-46.1c-24.3,0-47,14.8-58.9,30.9v145.4h-30.9v-199h30.9v28.8
			c14-16.9,41.2-33.8,71.3-33.8c41.2,0,63,21,63,64.3v139.7L3431.2,1528.8L3431.2,1528.8z"/>
		<path d="M3518.5,1280.8c0-11.5,9.5-21,21-21s20.6,9.5,20.6,21s-9.1,20.6-20.6,20.6S3518.5,1292.3,3518.5,1280.8z M3523.9,1528.8
			v-199h30.9v199H3523.9z"/>
		<path d="M3669.7,1528.8l-82.8-199h33.8l65.9,163.2l66.3-163.2h33.4l-82.8,199H3669.7z"/>
		<path d="M3806.9,1429.1c0-57.7,41.2-104.2,98.1-104.2c60.2,0,95.6,47,95.6,106.7v7.8h-160.7c2.5,37.5,28.4,68.8,71.3,68.8
			c23.1,0,45.7-9.1,61.8-25.5l14.8,20.2c-20.2,19.8-47,30.9-79.1,30.9C3849.4,1533.7,3806.9,1491.3,3806.9,1429.1z M3904.6,1350.4
			c-42.4,0-63.4,35.8-65.1,65.9h130.6C3969.7,1387.1,3949.9,1350.4,3904.6,1350.4z"/>
		<path d="M4050.4,1528.8v-199h30.9v31.7c16.1-20.6,39.1-36.3,66.3-36.3v31.7c-3.7-0.4-7.4-0.8-11.9-0.8
			c-19.4,0-45.3,15.7-54.4,31.7v140.9h-30.9V1528.8z"/>
		<path d="M4169.5,1502.4l15.7-22.2c13.2,15.2,38.3,28.4,65.5,28.4c30.5,0,47.4-14.4,47.4-34.2c0-48.2-123.2-18.5-123.2-92.3
			c0-31.3,26.4-57.3,73.7-57.3c34.2,0,58.1,12.8,73.7,28.8l-14.4,21.4c-11.9-14.4-33.4-25.1-59.3-25.1c-27.2,0-44.1,13.6-44.1,31.3
			c0,43.3,123.2,14.8,123.2,92.3c0,33.4-26.8,60.2-77.9,60.2C4216.9,1533.7,4189.7,1523.4,4169.5,1502.4z"/>
		<path d="M4366.4,1429.1c0-57.7,41.2-104.2,98.1-104.2c60.2,0,95.6,47,95.6,106.7v7.8h-160.7c2.5,37.5,28.4,68.8,71.3,68.8
			c23.1,0,45.7-9.1,61.8-25.5l14.8,20.2c-20.2,19.8-47,30.9-79.1,30.9C4408.9,1533.7,4366.4,1491.3,4366.4,1429.1z M4464.1,1350.4
			c-42.4,0-63.4,35.8-65.1,65.9h130.6C4529.2,1387.1,4509.4,1350.4,4464.1,1350.4z"/>
		<path d="M4699.7,1502.4l15.7-22.2c13.2,15.2,38.3,28.4,65.5,28.4c30.5,0,47.4-14.4,47.4-34.2c0-48.2-123.2-18.5-123.2-92.3
			c0-31.3,26.4-57.3,73.7-57.3c34.2,0,58.1,12.8,73.7,28.8l-14.4,21.4c-11.9-14.4-33.4-25.1-59.3-25.1c-27.2,0-44.1,13.6-44.1,31.3
			c0,43.3,123.2,14.8,123.2,92.3c0,33.4-26.8,60.2-77.9,60.2C4747.1,1533.7,4719.9,1523.4,4699.7,1502.4z"/>
		<path d="M4902.8,1280.8c0-11.5,9.5-21,21-21s20.6,9.5,20.6,21s-9.1,20.6-20.6,20.6S4902.8,1292.3,4902.8,1280.8z M4908.2,1528.8
			v-199h30.9v199H4908.2z"/>
		<path d="M5135.6,1528.8v-130.2c0-35.4-18.1-46.1-44.9-46.1c-24.3,0-47,14.8-58.9,30.9v145.4h-30.9v-199h30.9v28.8
			c14-16.9,41.2-33.8,71.3-33.8c41.2,0,63,21,63,64.3v139.7L5135.6,1528.8L5135.6,1528.8z"/>
		<path d="M5216.8,1429.1c0-58.9,40-104.2,99.3-104.2c36.3,0,57.7,14.8,72.9,34.6l-20.6,18.5c-13.2-18.1-30.1-25.5-50.7-25.5
			c-42,0-68.8,32.5-68.8,76.6s26.8,77,68.8,77c20.6,0,37.5-8.2,50.7-26l20.6,19c-15.2,19.8-36.7,34.6-72.9,34.6
			C5256.7,1533.7,5216.8,1488,5216.8,1429.1z"/>
		<path d="M5421.1,1429.1c0-57.7,41.2-104.2,98.1-104.2c60.2,0,95.6,47,95.6,106.7v7.8h-160.7c2.5,37.5,28.4,68.8,71.3,68.8
			c23.1,0,45.7-9.1,61.8-25.5l14.8,20.2c-20.2,19.8-47,30.9-79.1,30.9C5463.5,1533.7,5421.1,1491.3,5421.1,1429.1z M5518.8,1350.4
			c-42.4,0-63.4,35.8-65.1,65.9h130.6C5583.9,1387.1,5564.1,1350.4,5518.8,1350.4z"/>
		<path d="M5765.1,1528.8v-27.6c102.2-41.6,147.5-85.7,147.5-125.2c0-28.4-25.1-48.2-56-48.2c-32.1,0-60.2,13.2-76.6,34.6l-21-21.8
			c21.4-28,59.7-43.3,98.5-43.3c51.1,0,89.8,28.8,89.8,74.2c0,49.9-52.3,98.1-119.1,126.9h114.5v30.5L5765.1,1528.8L5765.1,1528.8z"
			/>
		<path d="M6104.6,1533.7c-73.3,0-105.1-59.3-105.1-118.2c0-59.3,31.7-118.2,105.1-118.2c73.3,0,105.1,58.9,105.1,118.2
			C6209.7,1474.4,6177.9,1533.7,6104.6,1533.7z M6104.6,1327.7c-49.4,0-70,43.7-70,87.8c0,44.1,20.6,87.8,70,87.8s70-43.7,70-87.8
			C6174.6,1371.4,6154.5,1327.7,6104.6,1327.7z"/>
		<path d="M6304,1528.8v-181.7l-44.1,47l-20.6-21l68.8-70.9h30.1v226.6H6304z"/>
		<path d="M6391.4,1391.6c0-74.2,34.6-141.7,112.1-141.7c35,0,58.9,13.2,75.8,33l-17.3,25.5c-14-16.5-30.1-28-58.5-28
			c-53.6,0-77.5,54-77.5,107.9c0,3.7,0,7,0,10.7c11.9-19,42.4-42.8,77.9-42.8c49.4,0,89.8,29.3,89.8,87.8c0,47.4-36.3,89.8-96,89.8
			C6420.6,1533.7,6391.4,1466.6,6391.4,1391.6z M6559,1445.2c0-40.4-28-59.3-63-59.3c-27.6,0-54,16.9-68.8,40.8
			c2.9,34.2,21,76.6,68.8,76.6C6538.4,1503.2,6559,1471.1,6559,1445.2z"/>
	</g>
</g>
</svg>
