<svg xmlns="http://www.w3.org/2000/svg" viewBox="0 0 1556.74 290.76"><defs><style>.cls-1{fill:#fff;}</style></defs><title>Middel 2</title><g id="Laag_2" data-name="Laag 2"><g id="Laag_1-2" data-name="Laag 1"><path class="cls-1" d="M5.38,152.55V2.48H24.05V152.55Z"/><path class="cls-1" d="M81.65,152.55V2.48H142c30.15,0,47,20.7,47,45.23s-17.1,45.23-47,45.23H100.33v59.63Zm88-104.85c0-16.88-12.15-28.58-29.93-28.58H100.33V76.28H139.7C157.48,76.28,169.63,64.58,169.63,47.7Z"/><path class="cls-1" d="M236.22,152.55V2.48h98.33V19.13H254.9V67.5H333V84.15H254.9v68.4Z"/><path class="cls-1" d="M373.7,131.4,384.95,117a61.9,61.9,0,0,0,47,21.6c26.78,0,35.33-14.4,35.33-26.1,0-38.7-88.88-17.1-88.88-70.65C378.42,17.1,400.47,0,430.17,0c22.73,0,40.5,7.88,53.1,21.15L472,34.88c-11.25-12.6-27-18-43.43-18-17.78,0-30.83,9.68-30.83,23.85,0,33.75,88.88,14.4,88.88,70.43,0,21.6-14.85,44.1-55.35,44.1C405.42,155.25,386.07,145.35,373.7,131.4Z"/><path class="cls-1" d="M608.82,131.4,620.07,117a61.9,61.9,0,0,0,47,21.6c26.78,0,35.33-14.4,35.33-26.1,0-38.7-88.88-17.1-88.88-70.65C613.54,17.1,635.59,0,665.29,0c22.73,0,40.5,7.88,53.1,21.15L707.15,34.88c-11.25-12.6-27-18-43.43-18-17.78,0-30.83,9.68-30.83,23.85,0,33.75,88.88,14.4,88.88,70.43,0,21.6-14.85,44.1-55.35,44.1C640.54,155.25,621.19,145.35,608.82,131.4Z"/><path class="cls-1" d="M772.17,152.55V2.48H870.5V19.13H790.84V67.5h78.08V84.15H790.84V135.9H870.5v16.65Z"/><path class="cls-1" d="M1029.79,152.55,1016.52,119h-74.7l-13.28,33.53H907.16L967.69,2.48h23.18l60.3,150.08Zm-50.63-131-31.73,81h63.68Z"/><path class="cls-1" d="M1180.09,152.55l-38-59.63h-30.15v59.63h-18.67V2.48h60.3c27.45,0,47.25,17.55,47.25,45.23,0,27-18.68,41.85-39.15,43.65l40.5,61.2Zm1.35-104.85c0-17.1-12.37-28.58-30.15-28.58h-39.38V76.5h39.38C1169.06,76.5,1181.44,64.58,1181.44,47.7Z"/><path class="cls-1" d="M1246.68,77.63c0-46.13,34-77.63,77.18-77.63,26.55,0,45,12.6,56.93,29.7l-15.53,8.78a50.47,50.47,0,0,0-41.4-21.83c-32.85,0-57.83,25-57.83,61,0,35.55,25,61,57.83,61a51.05,51.05,0,0,0,41.4-21.83l15.75,8.55c-12.6,17.33-30.6,29.93-57.15,29.93C1280.66,155.25,1246.68,123.75,1246.68,77.63Z"/><path class="cls-1" d="M1533.79,152.55V83.7H1446v68.85h-18.67V2.48H1446V67.05h87.75V2.48h18.68V152.55Z"/><path class="cls-1" d="M0,262l5-6.34a27.24,27.24,0,0,0,20.69,9.5c11.78,0,15.54-6.34,15.54-11.48,0-17-39.1-7.52-39.1-31.09,0-10.89,9.7-18.41,22.77-18.41,10,0,17.82,3.46,23.36,9.31l-5,6c-4.95-5.54-11.88-7.92-19.11-7.92-7.82,0-13.56,4.26-13.56,10.49,0,14.85,39.1,6.34,39.1,31,0,9.5-6.53,19.4-24.35,19.4C14,272.54,5.45,268.19,0,262Z"/><path class="cls-1" d="M60.88,247.4c0-13.86,9.9-25,23.56-25,14.45,0,23,11.29,23,25.64v1.88H68.8c.59,9,6.83,16.53,17.13,16.53a20.81,20.81,0,0,0,14.85-6.14l3.56,4.85a26.37,26.37,0,0,1-19,7.42C71.08,272.54,60.88,262.35,60.88,247.4Zm23.46-18.91c-10.2,0-15.25,8.61-15.64,15.84h31.38C100,237.3,95.24,228.49,84.35,228.49Z"/><path class="cls-1" d="M151.27,271.35v-5.44c-3.86,4.36-9.41,6.63-15.84,6.63-8,0-16.63-5.44-16.63-15.84,0-10.79,8.51-15.74,16.63-15.74,6.53,0,12,2.08,15.84,6.43v-8.61c0-6.34-5.15-10-12.08-10-5.74,0-10.39,2-14.65,6.63l-3.46-5.15c5.15-5.35,11.29-7.92,19.11-7.92,10.2,0,18.51,4.55,18.51,16.14v32.87Zm0-10.1v-9.11c-2.87-3.86-7.92-5.84-13.07-5.84-7,0-11.88,4.36-11.88,10.4s4.85,10.49,11.88,10.49C143.35,267.2,148.4,265.22,151.27,261.26Z"/><path class="cls-1" d="M175.62,271.35V223.54H183v7.62c3.86-5,9.4-8.71,15.94-8.71v7.62a24.49,24.49,0,0,0-2.87-.2c-4.65,0-10.89,3.76-13.07,7.62v33.86Z"/><path class="cls-1" d="M207.5,247.4c0-14.16,9.6-25,23.86-25,8.71,0,13.86,3.56,17.52,8.32l-5,4.46A14.08,14.08,0,0,0,231.76,229c-10.1,0-16.53,7.82-16.53,18.41s6.44,18.51,16.53,18.51a14.42,14.42,0,0,0,12.18-6.24l5,4.55c-3.66,4.75-8.81,8.32-17.52,8.32C217.1,272.54,207.5,261.55,207.5,247.4Z"/><path class="cls-1" d="M293.73,271.35V239.87c0-8.51-4.26-10.89-10.79-10.89-5.74,0-11.29,3.56-14.06,7.42v34.95h-7.42v-66h7.42v25.15a23,23,0,0,1,17-8.12c10,0,15.25,4.85,15.25,15.25v33.76Z"/><path class="cls-1" d="M316.7,211.76a5.07,5.07,0,0,1,5-5,5,5,0,0,1,4.95,5,4.9,4.9,0,0,1-4.95,5A5,5,0,0,1,316.7,211.76Zm1.29,59.6V223.54h7.43v47.82Z"/><path class="cls-1" d="M374.61,271.35V240.07c0-8.51-4.36-11.09-10.79-11.09-5.84,0-11.29,3.56-14.16,7.42v34.95h-7.43V223.54h7.43v6.93a23.4,23.4,0,0,1,17.13-8.12c9.9,0,15.15,5,15.15,15.44v33.56Z"/><path class="cls-1" d="M398.76,283.53l3.76-5.35c4,4.65,8.71,6.43,15.54,6.43,7.92,0,15.44-3.86,15.44-14v-7.23a20.31,20.31,0,0,1-16.14,8.51c-12.47,0-21.28-9.31-21.28-24.75s8.71-24.85,21.28-24.85a20,20,0,0,1,16.14,8.41v-7.23h7.42v47.12c0,15.15-11.19,20.1-22.87,20.1C410,290.76,404.51,289.17,398.76,283.53Zm34.75-25.94v-21A18.1,18.1,0,0,0,419.26,229c-9.7,0-15.44,7.62-15.44,18.22s5.74,18.12,15.44,18.12A17.91,17.91,0,0,0,433.51,257.59Z"/><path class="cls-1" d="M486.87,261.35V230.07H479v-6.53h7.92V210.47h7.52v13.07h9.7v6.53h-9.7v29.7c0,3.56,1.58,6.14,4.75,6.14a7,7,0,0,0,5-2.08l2.18,5.64c-1.88,1.78-4.55,3.07-8.81,3.07C490.44,272.54,486.87,268.48,486.87,261.35Z"/><path class="cls-1" d="M548.84,271.35V239.87c0-8.51-4.26-10.89-10.79-10.89-5.74,0-11.29,3.56-14.06,7.42v34.95h-7.42v-66H524v25.15a23,23,0,0,1,17-8.12c10,0,15.25,4.85,15.25,15.25v33.76Z"/><path class="cls-1" d="M570.33,247.4c0-13.86,9.9-25,23.56-25,14.45,0,23,11.29,23,25.64v1.88H578.25c.59,9,6.83,16.53,17.13,16.53a20.81,20.81,0,0,0,14.85-6.14l3.56,4.85a26.37,26.37,0,0,1-19,7.42C580.52,272.54,570.33,262.35,570.33,247.4Zm23.46-18.91c-10.2,0-15.25,8.61-15.64,15.84h31.38C609.43,237.3,604.68,228.49,593.79,228.49Z"/><path class="cls-1" d="M658.73,245.71V205.32H667v40.19c0,12.08,6.44,19.7,18.61,19.7s18.71-7.62,18.71-19.7V205.32h8.32v40.29c0,16.43-9.11,26.93-27,26.93S658.73,261.95,658.73,245.71Z"/><path class="cls-1" d="M762.18,271.35V240.07c0-8.51-4.36-11.09-10.79-11.09-5.84,0-11.29,3.56-14.16,7.42v34.95h-7.43V223.54h7.43v6.93a23.4,23.4,0,0,1,17.13-8.12c9.9,0,15.15,5,15.15,15.44v33.56Z"/><path class="cls-1" d="M785.15,211.76a5.07,5.07,0,0,1,5-5,5,5,0,0,1,5,5,4.9,4.9,0,0,1-5,5A5,5,0,0,1,785.15,211.76Zm1.29,59.6V223.54h7.42v47.82Z"/><path class="cls-1" d="M823.46,271.35l-19.9-47.82h8.12l15.84,39.2,15.94-39.2h8l-19.9,47.82Z"/><path class="cls-1" d="M858.41,247.4c0-13.86,9.9-25,23.56-25,14.45,0,23,11.29,23,25.64v1.88H866.33c.59,9,6.83,16.53,17.13,16.53a20.81,20.81,0,0,0,14.85-6.14l3.56,4.85a26.37,26.37,0,0,1-19,7.42C868.61,272.54,858.41,262.35,858.41,247.4Zm23.46-18.91c-10.2,0-15.25,8.61-15.64,15.84h31.38C897.51,237.3,892.76,228.49,881.87,228.49Z"/><path class="cls-1" d="M918.9,271.35V223.54h7.42v7.62c3.86-5,9.41-8.71,15.94-8.71v7.62a24.51,24.51,0,0,0-2.87-.2c-4.65,0-10.89,3.76-13.07,7.62v33.86Z"/><path class="cls-1" d="M949.49,265l3.76-5.35A21.67,21.67,0,0,0,969,266.5c7.33,0,11.38-3.46,11.38-8.22,0-11.58-29.6-4.46-29.6-22.18,0-7.52,6.34-13.76,17.72-13.76,8.22,0,14,3.07,17.72,6.93l-3.46,5.15c-2.87-3.46-8-6-14.26-6-6.53,0-10.59,3.27-10.59,7.52,0,10.39,29.6,3.56,29.6,22.18,0,8-6.44,14.45-18.71,14.45C960.87,272.54,954.34,270.07,949.49,265Z"/><path class="cls-1" d="M998.79,247.4c0-13.86,9.9-25,23.56-25,14.45,0,23,11.29,23,25.64v1.88h-38.61c.59,9,6.83,16.53,17.13,16.53a20.81,20.81,0,0,0,14.85-6.14l3.56,4.85a26.37,26.37,0,0,1-19,7.42C1009,272.54,998.79,262.35,998.79,247.4Zm23.46-18.91c-10.2,0-15.25,8.61-15.64,15.84H1038C1037.89,237.3,1033.14,228.49,1022.25,228.49Z"/><path class="cls-1" d="M1082.84,265l3.76-5.35a21.67,21.67,0,0,0,15.74,6.83c7.33,0,11.38-3.46,11.38-8.22,0-11.58-29.6-4.46-29.6-22.18,0-7.52,6.34-13.76,17.72-13.76,8.22,0,14,3.07,17.72,6.93l-3.46,5.15c-2.87-3.46-8-6-14.26-6-6.53,0-10.59,3.27-10.59,7.52,0,10.39,29.6,3.56,29.6,22.18,0,8-6.44,14.45-18.71,14.45C1094.22,272.54,1087.69,270.07,1082.84,265Z"/><path class="cls-1" d="M1133.62,211.76a5.07,5.07,0,0,1,5-5,5,5,0,0,1,5,5,4.9,4.9,0,0,1-5,5A5,5,0,0,1,1133.62,211.76Zm1.29,59.6V223.54h7.42v47.82Z"/><path class="cls-1" d="M1191.54,271.35V240.07c0-8.51-4.36-11.09-10.79-11.09-5.84,0-11.29,3.56-14.16,7.42v34.95h-7.42V223.54h7.42v6.93a23.4,23.4,0,0,1,17.13-8.12c9.9,0,15.15,5,15.15,15.44v33.56Z"/><path class="cls-1" d="M1213,247.4c0-14.16,9.6-25,23.86-25,8.71,0,13.86,3.56,17.52,8.32l-4.95,4.46a14.09,14.09,0,0,0-12.18-6.14c-10.1,0-16.53,7.82-16.53,18.41s6.43,18.51,16.53,18.51a14.42,14.42,0,0,0,12.18-6.24l4.95,4.55c-3.66,4.75-8.81,8.32-17.52,8.32C1222.62,272.54,1213,261.55,1213,247.4Z"/><path class="cls-1" d="M1264.1,247.4c0-13.86,9.9-25,23.56-25,14.45,0,23,11.29,23,25.64v1.88H1272c.59,9,6.83,16.53,17.13,16.53a20.81,20.81,0,0,0,14.85-6.14l3.56,4.85a26.37,26.37,0,0,1-19,7.42C1274.3,272.54,1264.1,262.35,1264.1,247.4Zm23.46-18.91c-10.2,0-15.25,8.61-15.64,15.84h31.38C1303.21,237.3,1298.45,228.49,1287.56,228.49Z"/><path class="cls-1" d="M1350.13,271.35v-6.63c23.76-18.61,36.73-29.6,36.73-41,0-8.51-7-12.08-13.86-12.08-7.92,0-14.06,3.37-17.92,8.32l-5-5.25c5-6.73,13.66-10.4,23-10.4,11,0,22.18,6.24,22.18,19.4,0,13.46-13.66,25.74-32.08,40.29h32.37v7.33Z"/><path class="cls-1" d="M1410,238.39c0-16.14,7.13-34.06,25.25-34.06s25.24,17.92,25.24,34.06-7.23,34.15-25.24,34.15S1410,254.43,1410,238.39Zm42.07,0c0-13.17-4.26-26.73-16.83-26.73s-16.83,13.56-16.83,26.73,4.26,26.83,16.83,26.83S1452.1,251.55,1452.1,238.39Z"/><path class="cls-1" d="M1485.17,271.35V216.11l-10.59,11.29-5-5,16.53-17h7.23v66Z"/><path class="cls-1" d="M1508.13,238.39c0-17.82,8.32-34.06,26.93-34.06,8.42,0,14.16,3.17,18.22,7.92l-4.16,6.14c-3.37-4-7.23-6.73-14.06-6.73-12.87,0-18.61,13-18.61,25.94v2.57c2.87-4.55,10.2-10.3,18.71-10.3,11.88,0,21.58,7,21.58,21.09,0,11.38-8.71,21.58-23.07,21.58C1515.16,272.54,1508.13,256.41,1508.13,238.39Zm40.29,12.87c0-9.7-6.73-14.26-15.15-14.26-6.63,0-13,4.06-16.53,9.8.69,8.22,5,18.41,16.53,18.41C1543.48,265.22,1548.43,257.49,1548.43,251.26Z"/></g></g></svg>