<?xml version="1.0" standalone="no"?>
<!DOCTYPE svg PUBLIC "-//W3C//DTD SVG 20010904//EN"
 "http://www.w3.org/TR/2001/REC-SVG-20010904/DTD/svg10.dtd">
<svg version="1.0" xmlns="http://www.w3.org/2000/svg"
 width="260.000000pt" height="260.000000pt" viewBox="0 0 260.000000 260.000000"
 preserveAspectRatio="xMidYMid meet">
<metadata>
Created by potrace 1.11, written by Peter Selinger 2001-2013
</metadata>
<g transform="translate(0.000000,260.000000) scale(0.100000,-0.100000)"
fill="#000000" stroke="none">
<path d="M964 2205 c-259 -56 -466 -244 -555 -505 -30 -88 -33 -105 -33 -225
0 -147 14 -217 69 -330 70 -145 181 -260 325 -338 102 -56 189 -78 320 -84
146 -6 234 11 352 70 l87 43 233 -233 c128 -128 241 -236 252 -239 14 -5 42
18 117 92 55 54 99 105 99 114 0 8 -107 122 -237 252 l-237 237 37 74 c124
247 101 549 -58 772 -102 144 -280 261 -452 299 -86 19 -235 20 -319 1z m285
-240 c126 -33 233 -111 303 -219 164 -254 65 -606 -206 -735 -79 -38 -133 -50
-221 -51 -388 -1 -635 411 -453 753 62 115 190 216 319 251 70 19 190 20 258
1z"/>
</g>
</svg>
